<mxfile host="app.diagrams.net" modified="2024-06-12T02:06:49.390Z" agent="Mozilla/5.0 (Windows NT 10.0; Win64; x64) AppleWebKit/537.36 (KHTML, like Gecko) Chrome/125.0.0.0 Safari/537.36" version="24.5.2" etag="VpTPje9VYP4LAYSHGgxN" type="github">
  <diagram name="PÃ¡gina-1" id="5M1ivHrvY5m4q08JIpSf">
    <mxGraphModel>
      <root>
        <mxCell id="0" />
        <mxCell id="1" parent="0" />
      </root>
    </mxGraphModel>
  </diagram>
</mxfile>
